<mxfile host="app.diagrams.net" modified="2024-04-12T15:57:52.866Z" agent="Mozilla/5.0 (Windows NT 10.0; Win64; x64) AppleWebKit/537.36 (KHTML, like Gecko) Chrome/123.0.0.0 Safari/537.36" version="24.2.2" etag="4G-IhJ_uXw42c6VZ-mk8" type="device">
  <diagram id="MX5JL-WR5lbFEw-IflkH" name="PÃ¡gina-1">
    <mxGraphModel dx="876" dy="468" grid="1" gridSize="10" guides="1" tooltips="1" connect="1" arrows="1" fold="1" page="1" pageScale="1" pageWidth="827" pageHeight="1169" math="0" shadow="0">
      <root>
        <mxCell id="0" />
        <mxCell id="1" parent="0" />
        <mxCell id="l7m09cQ_6OSYpOig4NT3-1" value="&lt;font style=&quot;vertical-align: inherit;&quot;&gt;&lt;font style=&quot;vertical-align: inherit;&quot;&gt;hospital&lt;/font&gt;&lt;/font&gt;" style="rounded=0;whiteSpace=wrap;html=1;" vertex="1" parent="1">
          <mxGeometry x="290" y="150" width="120" height="60" as="geometry" />
        </mxCell>
        <mxCell id="l7m09cQ_6OSYpOig4NT3-2" value="&lt;font style=&quot;vertical-align: inherit;&quot;&gt;&lt;font style=&quot;vertical-align: inherit;&quot;&gt;nombre&lt;/font&gt;&lt;/font&gt;" style="ellipse;whiteSpace=wrap;html=1;" vertex="1" parent="1">
          <mxGeometry x="10" y="150" width="140" height="50" as="geometry" />
        </mxCell>
        <mxCell id="l7m09cQ_6OSYpOig4NT3-3" value="&lt;font style=&quot;vertical-align: inherit;&quot;&gt;&lt;font style=&quot;vertical-align: inherit;&quot;&gt;&lt;font style=&quot;vertical-align: inherit;&quot;&gt;&lt;font style=&quot;vertical-align: inherit;&quot;&gt;ubicacion&lt;/font&gt;&lt;/font&gt;&lt;/font&gt;&lt;/font&gt;" style="ellipse;whiteSpace=wrap;html=1;" vertex="1" parent="1">
          <mxGeometry x="100" y="60" width="140" height="50" as="geometry" />
        </mxCell>
        <mxCell id="l7m09cQ_6OSYpOig4NT3-4" value="&lt;font style=&quot;vertical-align: inherit;&quot;&gt;&lt;font style=&quot;vertical-align: inherit;&quot;&gt;&lt;font style=&quot;vertical-align: inherit;&quot;&gt;&lt;font style=&quot;vertical-align: inherit;&quot;&gt;horarios&lt;/font&gt;&lt;/font&gt;&lt;/font&gt;&lt;/font&gt;" style="ellipse;whiteSpace=wrap;html=1;" vertex="1" parent="1">
          <mxGeometry x="240" y="30" width="140" height="50" as="geometry" />
        </mxCell>
        <mxCell id="l7m09cQ_6OSYpOig4NT3-58" style="edgeStyle=none;rounded=0;orthogonalLoop=1;jettySize=auto;html=1;entryX=0.5;entryY=0;entryDx=0;entryDy=0;" edge="1" parent="1" source="l7m09cQ_6OSYpOig4NT3-5" target="l7m09cQ_6OSYpOig4NT3-56">
          <mxGeometry relative="1" as="geometry" />
        </mxCell>
        <mxCell id="l7m09cQ_6OSYpOig4NT3-125" style="edgeStyle=none;rounded=0;orthogonalLoop=1;jettySize=auto;html=1;" edge="1" parent="1" source="l7m09cQ_6OSYpOig4NT3-5" target="l7m09cQ_6OSYpOig4NT3-123">
          <mxGeometry relative="1" as="geometry" />
        </mxCell>
        <mxCell id="l7m09cQ_6OSYpOig4NT3-126" style="edgeStyle=none;rounded=0;orthogonalLoop=1;jettySize=auto;html=1;entryX=0;entryY=0;entryDx=0;entryDy=0;" edge="1" parent="1" source="l7m09cQ_6OSYpOig4NT3-5" target="l7m09cQ_6OSYpOig4NT3-124">
          <mxGeometry relative="1" as="geometry" />
        </mxCell>
        <mxCell id="l7m09cQ_6OSYpOig4NT3-127" style="edgeStyle=none;rounded=0;orthogonalLoop=1;jettySize=auto;html=1;entryX=1;entryY=0.5;entryDx=0;entryDy=0;" edge="1" parent="1" source="l7m09cQ_6OSYpOig4NT3-5" target="l7m09cQ_6OSYpOig4NT3-121">
          <mxGeometry relative="1" as="geometry" />
        </mxCell>
        <mxCell id="l7m09cQ_6OSYpOig4NT3-5" value="&lt;font style=&quot;vertical-align: inherit;&quot;&gt;&lt;font style=&quot;vertical-align: inherit;&quot;&gt;paciente&lt;/font&gt;&lt;/font&gt;" style="rounded=0;whiteSpace=wrap;html=1;" vertex="1" parent="1">
          <mxGeometry x="300" y="730" width="120" height="60" as="geometry" />
        </mxCell>
        <mxCell id="l7m09cQ_6OSYpOig4NT3-114" style="edgeStyle=none;rounded=0;orthogonalLoop=1;jettySize=auto;html=1;" edge="1" parent="1" source="l7m09cQ_6OSYpOig4NT3-6" target="l7m09cQ_6OSYpOig4NT3-105">
          <mxGeometry relative="1" as="geometry" />
        </mxCell>
        <mxCell id="l7m09cQ_6OSYpOig4NT3-115" style="edgeStyle=none;rounded=0;orthogonalLoop=1;jettySize=auto;html=1;" edge="1" parent="1" source="l7m09cQ_6OSYpOig4NT3-6" target="l7m09cQ_6OSYpOig4NT3-104">
          <mxGeometry relative="1" as="geometry" />
        </mxCell>
        <mxCell id="l7m09cQ_6OSYpOig4NT3-6" value="&lt;font style=&quot;vertical-align: inherit;&quot;&gt;&lt;font style=&quot;vertical-align: inherit;&quot;&gt;medico&lt;/font&gt;&lt;/font&gt;" style="rounded=0;whiteSpace=wrap;html=1;" vertex="1" parent="1">
          <mxGeometry x="130" y="560" width="120" height="60" as="geometry" />
        </mxCell>
        <mxCell id="l7m09cQ_6OSYpOig4NT3-52" style="edgeStyle=none;rounded=0;orthogonalLoop=1;jettySize=auto;html=1;entryX=0.5;entryY=0;entryDx=0;entryDy=0;" edge="1" parent="1" source="l7m09cQ_6OSYpOig4NT3-7" target="l7m09cQ_6OSYpOig4NT3-24">
          <mxGeometry relative="1" as="geometry" />
        </mxCell>
        <mxCell id="l7m09cQ_6OSYpOig4NT3-109" style="edgeStyle=none;rounded=0;orthogonalLoop=1;jettySize=auto;html=1;entryX=1;entryY=1;entryDx=0;entryDy=0;" edge="1" parent="1" source="l7m09cQ_6OSYpOig4NT3-7" target="l7m09cQ_6OSYpOig4NT3-107">
          <mxGeometry relative="1" as="geometry" />
        </mxCell>
        <mxCell id="l7m09cQ_6OSYpOig4NT3-120" style="edgeStyle=none;rounded=0;orthogonalLoop=1;jettySize=auto;html=1;entryX=0;entryY=1;entryDx=0;entryDy=0;" edge="1" parent="1" source="l7m09cQ_6OSYpOig4NT3-7" target="l7m09cQ_6OSYpOig4NT3-118">
          <mxGeometry relative="1" as="geometry" />
        </mxCell>
        <mxCell id="l7m09cQ_6OSYpOig4NT3-7" value="&lt;font style=&quot;vertical-align: inherit;&quot;&gt;&lt;font style=&quot;vertical-align: inherit;&quot;&gt;area&amp;nbsp;&lt;/font&gt;&lt;/font&gt;" style="rounded=0;whiteSpace=wrap;html=1;" vertex="1" parent="1">
          <mxGeometry x="290" y="380" width="120" height="60" as="geometry" />
        </mxCell>
        <mxCell id="l7m09cQ_6OSYpOig4NT3-67" style="edgeStyle=none;rounded=0;orthogonalLoop=1;jettySize=auto;html=1;entryX=0;entryY=0;entryDx=0;entryDy=0;" edge="1" parent="1" source="l7m09cQ_6OSYpOig4NT3-8" target="l7m09cQ_6OSYpOig4NT3-61">
          <mxGeometry relative="1" as="geometry" />
        </mxCell>
        <mxCell id="l7m09cQ_6OSYpOig4NT3-8" value="&lt;font style=&quot;vertical-align: inherit;&quot;&gt;&lt;font style=&quot;vertical-align: inherit;&quot;&gt;Consulta&lt;/font&gt;&lt;/font&gt;" style="rounded=0;whiteSpace=wrap;html=1;" vertex="1" parent="1">
          <mxGeometry x="150" y="940" width="120" height="60" as="geometry" />
        </mxCell>
        <mxCell id="l7m09cQ_6OSYpOig4NT3-11" value="&lt;font style=&quot;vertical-align: inherit;&quot;&gt;&lt;font style=&quot;vertical-align: inherit;&quot;&gt;telefono&lt;/font&gt;&lt;/font&gt;" style="ellipse;whiteSpace=wrap;html=1;" vertex="1" parent="1">
          <mxGeometry x="400" y="40" width="140" height="50" as="geometry" />
        </mxCell>
        <mxCell id="l7m09cQ_6OSYpOig4NT3-12" value="&lt;font style=&quot;vertical-align: inherit;&quot;&gt;&lt;font style=&quot;vertical-align: inherit;&quot;&gt;tipo de hospital&lt;/font&gt;&lt;/font&gt;" style="ellipse;whiteSpace=wrap;html=1;" vertex="1" parent="1">
          <mxGeometry x="540" y="100" width="140" height="50" as="geometry" />
        </mxCell>
        <mxCell id="l7m09cQ_6OSYpOig4NT3-111" style="edgeStyle=none;rounded=0;orthogonalLoop=1;jettySize=auto;html=1;entryX=0;entryY=1;entryDx=0;entryDy=0;" edge="1" parent="1" source="l7m09cQ_6OSYpOig4NT3-14" target="l7m09cQ_6OSYpOig4NT3-101">
          <mxGeometry relative="1" as="geometry" />
        </mxCell>
        <mxCell id="l7m09cQ_6OSYpOig4NT3-112" style="edgeStyle=none;rounded=0;orthogonalLoop=1;jettySize=auto;html=1;entryX=0;entryY=0;entryDx=0;entryDy=0;" edge="1" parent="1" source="l7m09cQ_6OSYpOig4NT3-14" target="l7m09cQ_6OSYpOig4NT3-102">
          <mxGeometry relative="1" as="geometry" />
        </mxCell>
        <mxCell id="l7m09cQ_6OSYpOig4NT3-14" value="enfermero/a" style="rounded=0;whiteSpace=wrap;html=1;" vertex="1" parent="1">
          <mxGeometry x="450" y="550" width="120" height="60" as="geometry" />
        </mxCell>
        <mxCell id="l7m09cQ_6OSYpOig4NT3-68" style="edgeStyle=none;rounded=0;orthogonalLoop=1;jettySize=auto;html=1;entryX=1;entryY=0;entryDx=0;entryDy=0;" edge="1" parent="1" source="l7m09cQ_6OSYpOig4NT3-15" target="l7m09cQ_6OSYpOig4NT3-61">
          <mxGeometry relative="1" as="geometry" />
        </mxCell>
        <mxCell id="l7m09cQ_6OSYpOig4NT3-134" value="" style="edgeStyle=none;rounded=0;orthogonalLoop=1;jettySize=auto;html=1;" edge="1" parent="1" source="l7m09cQ_6OSYpOig4NT3-15" target="l7m09cQ_6OSYpOig4NT3-133">
          <mxGeometry relative="1" as="geometry" />
        </mxCell>
        <mxCell id="l7m09cQ_6OSYpOig4NT3-137" value="" style="edgeStyle=none;rounded=0;orthogonalLoop=1;jettySize=auto;html=1;" edge="1" parent="1" source="l7m09cQ_6OSYpOig4NT3-15" target="l7m09cQ_6OSYpOig4NT3-136">
          <mxGeometry relative="1" as="geometry" />
        </mxCell>
        <mxCell id="l7m09cQ_6OSYpOig4NT3-15" value="historial de ingresos" style="rounded=0;whiteSpace=wrap;html=1;" vertex="1" parent="1">
          <mxGeometry x="420" y="940" width="120" height="60" as="geometry" />
        </mxCell>
        <mxCell id="l7m09cQ_6OSYpOig4NT3-16" style="rounded=0;orthogonalLoop=1;jettySize=auto;html=1;" edge="1" parent="1" source="l7m09cQ_6OSYpOig4NT3-1" target="l7m09cQ_6OSYpOig4NT3-12">
          <mxGeometry relative="1" as="geometry" />
        </mxCell>
        <mxCell id="l7m09cQ_6OSYpOig4NT3-18" style="edgeStyle=none;rounded=0;orthogonalLoop=1;jettySize=auto;html=1;entryX=0.221;entryY=0.88;entryDx=0;entryDy=0;entryPerimeter=0;" edge="1" parent="1" source="l7m09cQ_6OSYpOig4NT3-1" target="l7m09cQ_6OSYpOig4NT3-11">
          <mxGeometry relative="1" as="geometry" />
        </mxCell>
        <mxCell id="l7m09cQ_6OSYpOig4NT3-19" style="edgeStyle=none;rounded=0;orthogonalLoop=1;jettySize=auto;html=1;entryX=0.571;entryY=0.9;entryDx=0;entryDy=0;entryPerimeter=0;" edge="1" parent="1" source="l7m09cQ_6OSYpOig4NT3-1" target="l7m09cQ_6OSYpOig4NT3-4">
          <mxGeometry relative="1" as="geometry" />
        </mxCell>
        <mxCell id="l7m09cQ_6OSYpOig4NT3-20" style="edgeStyle=none;rounded=0;orthogonalLoop=1;jettySize=auto;html=1;entryX=0.771;entryY=0.98;entryDx=0;entryDy=0;entryPerimeter=0;" edge="1" parent="1" source="l7m09cQ_6OSYpOig4NT3-1" target="l7m09cQ_6OSYpOig4NT3-3">
          <mxGeometry relative="1" as="geometry" />
        </mxCell>
        <mxCell id="l7m09cQ_6OSYpOig4NT3-21" style="edgeStyle=none;rounded=0;orthogonalLoop=1;jettySize=auto;html=1;entryX=0.95;entryY=0.72;entryDx=0;entryDy=0;entryPerimeter=0;" edge="1" parent="1" source="l7m09cQ_6OSYpOig4NT3-1" target="l7m09cQ_6OSYpOig4NT3-2">
          <mxGeometry relative="1" as="geometry" />
        </mxCell>
        <mxCell id="l7m09cQ_6OSYpOig4NT3-23" value="tiene" style="rhombus;whiteSpace=wrap;html=1;" vertex="1" parent="1">
          <mxGeometry x="310" y="260" width="80" height="80" as="geometry" />
        </mxCell>
        <mxCell id="l7m09cQ_6OSYpOig4NT3-24" value="tiene" style="rhombus;whiteSpace=wrap;html=1;" vertex="1" parent="1">
          <mxGeometry x="315" y="470" width="70" height="60" as="geometry" />
        </mxCell>
        <mxCell id="l7m09cQ_6OSYpOig4NT3-47" value="" style="endArrow=classic;startArrow=classic;html=1;rounded=0;entryX=0.5;entryY=1;entryDx=0;entryDy=0;exitX=0.5;exitY=0;exitDx=0;exitDy=0;" edge="1" parent="1" source="l7m09cQ_6OSYpOig4NT3-23" target="l7m09cQ_6OSYpOig4NT3-1">
          <mxGeometry width="50" height="50" relative="1" as="geometry">
            <mxPoint x="270" y="410" as="sourcePoint" />
            <mxPoint x="320" y="360" as="targetPoint" />
          </mxGeometry>
        </mxCell>
        <mxCell id="l7m09cQ_6OSYpOig4NT3-51" value="" style="endArrow=none;html=1;rounded=0;entryX=0.5;entryY=1;entryDx=0;entryDy=0;" edge="1" parent="1" source="l7m09cQ_6OSYpOig4NT3-7" target="l7m09cQ_6OSYpOig4NT3-23">
          <mxGeometry width="50" height="50" relative="1" as="geometry">
            <mxPoint x="510" y="430" as="sourcePoint" />
            <mxPoint x="320" y="360" as="targetPoint" />
          </mxGeometry>
        </mxCell>
        <mxCell id="l7m09cQ_6OSYpOig4NT3-54" value="" style="endArrow=none;html=1;rounded=0;entryX=0;entryY=1;entryDx=0;entryDy=0;exitX=1;exitY=0;exitDx=0;exitDy=0;" edge="1" parent="1" source="l7m09cQ_6OSYpOig4NT3-6" target="l7m09cQ_6OSYpOig4NT3-24">
          <mxGeometry width="50" height="50" relative="1" as="geometry">
            <mxPoint x="270" y="650" as="sourcePoint" />
            <mxPoint x="320" y="600" as="targetPoint" />
          </mxGeometry>
        </mxCell>
        <mxCell id="l7m09cQ_6OSYpOig4NT3-56" value="salida" style="rhombus;whiteSpace=wrap;html=1;" vertex="1" parent="1">
          <mxGeometry x="320" y="830" width="80" height="80" as="geometry" />
        </mxCell>
        <mxCell id="l7m09cQ_6OSYpOig4NT3-57" value="" style="endArrow=none;html=1;rounded=0;entryX=1;entryY=1;entryDx=0;entryDy=0;exitX=0;exitY=0;exitDx=0;exitDy=0;" edge="1" parent="1" source="l7m09cQ_6OSYpOig4NT3-14" target="l7m09cQ_6OSYpOig4NT3-24">
          <mxGeometry width="50" height="50" relative="1" as="geometry">
            <mxPoint x="270" y="660" as="sourcePoint" />
            <mxPoint x="320" y="610" as="targetPoint" />
          </mxGeometry>
        </mxCell>
        <mxCell id="l7m09cQ_6OSYpOig4NT3-59" value="" style="endArrow=none;html=1;rounded=0;exitX=0.5;exitY=0;exitDx=0;exitDy=0;entryX=0;entryY=1;entryDx=0;entryDy=0;" edge="1" parent="1" source="l7m09cQ_6OSYpOig4NT3-8" target="l7m09cQ_6OSYpOig4NT3-56">
          <mxGeometry width="50" height="50" relative="1" as="geometry">
            <mxPoint x="270" y="660" as="sourcePoint" />
            <mxPoint x="320" y="610" as="targetPoint" />
          </mxGeometry>
        </mxCell>
        <mxCell id="l7m09cQ_6OSYpOig4NT3-60" value="" style="endArrow=none;html=1;rounded=0;entryX=1;entryY=1;entryDx=0;entryDy=0;exitX=0.5;exitY=0;exitDx=0;exitDy=0;" edge="1" parent="1" source="l7m09cQ_6OSYpOig4NT3-15" target="l7m09cQ_6OSYpOig4NT3-56">
          <mxGeometry width="50" height="50" relative="1" as="geometry">
            <mxPoint x="270" y="660" as="sourcePoint" />
            <mxPoint x="320" y="610" as="targetPoint" />
          </mxGeometry>
        </mxCell>
        <mxCell id="l7m09cQ_6OSYpOig4NT3-61" value="salida" style="rhombus;whiteSpace=wrap;html=1;" vertex="1" parent="1">
          <mxGeometry x="314" y="1030" width="80" height="80" as="geometry" />
        </mxCell>
        <mxCell id="l7m09cQ_6OSYpOig4NT3-82" style="edgeStyle=none;rounded=0;orthogonalLoop=1;jettySize=auto;html=1;entryX=0;entryY=0;entryDx=0;entryDy=0;" edge="1" parent="1" source="l7m09cQ_6OSYpOig4NT3-62" target="l7m09cQ_6OSYpOig4NT3-66">
          <mxGeometry relative="1" as="geometry" />
        </mxCell>
        <mxCell id="l7m09cQ_6OSYpOig4NT3-83" style="edgeStyle=none;rounded=0;orthogonalLoop=1;jettySize=auto;html=1;entryX=0;entryY=0;entryDx=0;entryDy=0;" edge="1" parent="1" source="l7m09cQ_6OSYpOig4NT3-62" target="l7m09cQ_6OSYpOig4NT3-70">
          <mxGeometry relative="1" as="geometry" />
        </mxCell>
        <mxCell id="l7m09cQ_6OSYpOig4NT3-84" style="edgeStyle=none;rounded=0;orthogonalLoop=1;jettySize=auto;html=1;entryX=0.5;entryY=0;entryDx=0;entryDy=0;" edge="1" parent="1" source="l7m09cQ_6OSYpOig4NT3-62" target="l7m09cQ_6OSYpOig4NT3-65">
          <mxGeometry relative="1" as="geometry" />
        </mxCell>
        <mxCell id="l7m09cQ_6OSYpOig4NT3-85" style="edgeStyle=none;rounded=0;orthogonalLoop=1;jettySize=auto;html=1;entryX=1;entryY=0;entryDx=0;entryDy=0;" edge="1" parent="1" source="l7m09cQ_6OSYpOig4NT3-62" target="l7m09cQ_6OSYpOig4NT3-64">
          <mxGeometry relative="1" as="geometry" />
        </mxCell>
        <mxCell id="l7m09cQ_6OSYpOig4NT3-86" style="edgeStyle=none;rounded=0;orthogonalLoop=1;jettySize=auto;html=1;entryX=1;entryY=0;entryDx=0;entryDy=0;" edge="1" parent="1" source="l7m09cQ_6OSYpOig4NT3-62" target="l7m09cQ_6OSYpOig4NT3-63">
          <mxGeometry relative="1" as="geometry" />
        </mxCell>
        <mxCell id="l7m09cQ_6OSYpOig4NT3-99" style="edgeStyle=none;rounded=0;orthogonalLoop=1;jettySize=auto;html=1;" edge="1" parent="1" source="l7m09cQ_6OSYpOig4NT3-62" target="l7m09cQ_6OSYpOig4NT3-78">
          <mxGeometry relative="1" as="geometry" />
        </mxCell>
        <mxCell id="l7m09cQ_6OSYpOig4NT3-62" value="documentos" style="rounded=0;whiteSpace=wrap;html=1;" vertex="1" parent="1">
          <mxGeometry x="294" y="1169" width="120" height="60" as="geometry" />
        </mxCell>
        <mxCell id="l7m09cQ_6OSYpOig4NT3-63" value="nombre" style="ellipse;whiteSpace=wrap;html=1;" vertex="1" parent="1">
          <mxGeometry x="210" y="1330" width="80" height="30" as="geometry" />
        </mxCell>
        <mxCell id="l7m09cQ_6OSYpOig4NT3-64" value="fecha" style="ellipse;whiteSpace=wrap;html=1;" vertex="1" parent="1">
          <mxGeometry x="310" y="1340" width="80" height="40" as="geometry" />
        </mxCell>
        <mxCell id="l7m09cQ_6OSYpOig4NT3-65" value="hora" style="ellipse;whiteSpace=wrap;html=1;" vertex="1" parent="1">
          <mxGeometry x="430" y="1340" width="70" height="30" as="geometry" />
        </mxCell>
        <mxCell id="l7m09cQ_6OSYpOig4NT3-66" value="telefono" style="ellipse;whiteSpace=wrap;html=1;" vertex="1" parent="1">
          <mxGeometry x="590" y="1250" width="80" height="30" as="geometry" />
        </mxCell>
        <mxCell id="l7m09cQ_6OSYpOig4NT3-69" style="edgeStyle=none;rounded=0;orthogonalLoop=1;jettySize=auto;html=1;entryX=0.492;entryY=0.117;entryDx=0;entryDy=0;entryPerimeter=0;" edge="1" parent="1" source="l7m09cQ_6OSYpOig4NT3-61" target="l7m09cQ_6OSYpOig4NT3-62">
          <mxGeometry relative="1" as="geometry" />
        </mxCell>
        <mxCell id="l7m09cQ_6OSYpOig4NT3-70" value="id_pacietne" style="ellipse;whiteSpace=wrap;html=1;" vertex="1" parent="1">
          <mxGeometry x="500" y="1300" width="90" height="40" as="geometry" />
        </mxCell>
        <mxCell id="l7m09cQ_6OSYpOig4NT3-78" value="id_medico" style="ellipse;whiteSpace=wrap;html=1;" vertex="1" parent="1">
          <mxGeometry x="45" y="1250" width="90" height="40" as="geometry" />
        </mxCell>
        <mxCell id="l7m09cQ_6OSYpOig4NT3-81" value="id_enfermero/a" style="ellipse;whiteSpace=wrap;html=1;" vertex="1" parent="1">
          <mxGeometry x="125" y="1300" width="90" height="40" as="geometry" />
        </mxCell>
        <mxCell id="l7m09cQ_6OSYpOig4NT3-93" value="" style="edgeStyle=none;rounded=0;orthogonalLoop=1;jettySize=auto;html=1;" edge="1" parent="1" source="l7m09cQ_6OSYpOig4NT3-89" target="l7m09cQ_6OSYpOig4NT3-5">
          <mxGeometry relative="1" as="geometry" />
        </mxCell>
        <mxCell id="l7m09cQ_6OSYpOig4NT3-89" value="tiene" style="rhombus;whiteSpace=wrap;html=1;" vertex="1" parent="1">
          <mxGeometry x="135" y="660" width="80" height="80" as="geometry" />
        </mxCell>
        <mxCell id="l7m09cQ_6OSYpOig4NT3-94" style="edgeStyle=none;rounded=0;orthogonalLoop=1;jettySize=auto;html=1;entryX=1;entryY=0.25;entryDx=0;entryDy=0;" edge="1" parent="1" source="l7m09cQ_6OSYpOig4NT3-90" target="l7m09cQ_6OSYpOig4NT3-5">
          <mxGeometry relative="1" as="geometry" />
        </mxCell>
        <mxCell id="l7m09cQ_6OSYpOig4NT3-90" value="tiene" style="rhombus;whiteSpace=wrap;html=1;" vertex="1" parent="1">
          <mxGeometry x="490" y="670" width="80" height="80" as="geometry" />
        </mxCell>
        <mxCell id="l7m09cQ_6OSYpOig4NT3-95" value="" style="endArrow=none;html=1;rounded=0;entryX=0.675;entryY=1.1;entryDx=0;entryDy=0;entryPerimeter=0;exitX=0.5;exitY=0;exitDx=0;exitDy=0;" edge="1" parent="1" source="l7m09cQ_6OSYpOig4NT3-90" target="l7m09cQ_6OSYpOig4NT3-14">
          <mxGeometry width="50" height="50" relative="1" as="geometry">
            <mxPoint x="270" y="760" as="sourcePoint" />
            <mxPoint x="320" y="710" as="targetPoint" />
          </mxGeometry>
        </mxCell>
        <mxCell id="l7m09cQ_6OSYpOig4NT3-96" value="" style="endArrow=none;html=1;rounded=0;entryX=0.383;entryY=0.95;entryDx=0;entryDy=0;entryPerimeter=0;exitX=0.5;exitY=0;exitDx=0;exitDy=0;" edge="1" parent="1" source="l7m09cQ_6OSYpOig4NT3-89" target="l7m09cQ_6OSYpOig4NT3-6">
          <mxGeometry width="50" height="50" relative="1" as="geometry">
            <mxPoint x="270" y="760" as="sourcePoint" />
            <mxPoint x="320" y="710" as="targetPoint" />
          </mxGeometry>
        </mxCell>
        <mxCell id="l7m09cQ_6OSYpOig4NT3-98" style="edgeStyle=none;rounded=0;orthogonalLoop=1;jettySize=auto;html=1;entryX=0.722;entryY=0.025;entryDx=0;entryDy=0;entryPerimeter=0;" edge="1" parent="1" source="l7m09cQ_6OSYpOig4NT3-62" target="l7m09cQ_6OSYpOig4NT3-81">
          <mxGeometry relative="1" as="geometry" />
        </mxCell>
        <mxCell id="l7m09cQ_6OSYpOig4NT3-100" value="id_enfermero/a" style="ellipse;whiteSpace=wrap;html=1;" vertex="1" parent="1">
          <mxGeometry x="540" y="430" width="90" height="40" as="geometry" />
        </mxCell>
        <mxCell id="l7m09cQ_6OSYpOig4NT3-101" value="nombre" style="ellipse;whiteSpace=wrap;html=1;" vertex="1" parent="1">
          <mxGeometry x="610" y="510" width="90" height="40" as="geometry" />
        </mxCell>
        <mxCell id="l7m09cQ_6OSYpOig4NT3-102" value="telefono" style="ellipse;whiteSpace=wrap;html=1;" vertex="1" parent="1">
          <mxGeometry x="620" y="600" width="100" height="40" as="geometry" />
        </mxCell>
        <mxCell id="l7m09cQ_6OSYpOig4NT3-103" value="id_medico" style="ellipse;whiteSpace=wrap;html=1;" vertex="1" parent="1">
          <mxGeometry x="100" y="480" width="90" height="40" as="geometry" />
        </mxCell>
        <mxCell id="l7m09cQ_6OSYpOig4NT3-104" value="telefono" style="ellipse;whiteSpace=wrap;html=1;" vertex="1" parent="1">
          <mxGeometry x="20" y="590" width="90" height="40" as="geometry" />
        </mxCell>
        <mxCell id="l7m09cQ_6OSYpOig4NT3-105" value="nombre" style="ellipse;whiteSpace=wrap;html=1;" vertex="1" parent="1">
          <mxGeometry x="10" y="520" width="90" height="40" as="geometry" />
        </mxCell>
        <mxCell id="l7m09cQ_6OSYpOig4NT3-106" value="emergencias" style="ellipse;whiteSpace=wrap;html=1;" vertex="1" parent="1">
          <mxGeometry x="80" y="300" width="90" height="30" as="geometry" />
        </mxCell>
        <mxCell id="l7m09cQ_6OSYpOig4NT3-107" value="adultos_mayores" style="ellipse;whiteSpace=wrap;html=1;" vertex="1" parent="1">
          <mxGeometry x="80" y="360" width="90" height="40" as="geometry" />
        </mxCell>
        <mxCell id="l7m09cQ_6OSYpOig4NT3-108" style="edgeStyle=none;rounded=0;orthogonalLoop=1;jettySize=auto;html=1;entryX=0.933;entryY=0.3;entryDx=0;entryDy=0;entryPerimeter=0;" edge="1" parent="1" source="l7m09cQ_6OSYpOig4NT3-7" target="l7m09cQ_6OSYpOig4NT3-106">
          <mxGeometry relative="1" as="geometry" />
        </mxCell>
        <mxCell id="l7m09cQ_6OSYpOig4NT3-110" style="edgeStyle=none;rounded=0;orthogonalLoop=1;jettySize=auto;html=1;entryX=0.2;entryY=1.05;entryDx=0;entryDy=0;entryPerimeter=0;" edge="1" parent="1" source="l7m09cQ_6OSYpOig4NT3-14" target="l7m09cQ_6OSYpOig4NT3-100">
          <mxGeometry relative="1" as="geometry" />
        </mxCell>
        <mxCell id="l7m09cQ_6OSYpOig4NT3-113" style="edgeStyle=none;rounded=0;orthogonalLoop=1;jettySize=auto;html=1;entryX=0.733;entryY=0.875;entryDx=0;entryDy=0;entryPerimeter=0;" edge="1" parent="1" source="l7m09cQ_6OSYpOig4NT3-6" target="l7m09cQ_6OSYpOig4NT3-103">
          <mxGeometry relative="1" as="geometry" />
        </mxCell>
        <mxCell id="l7m09cQ_6OSYpOig4NT3-116" value="nutricion" style="ellipse;whiteSpace=wrap;html=1;" vertex="1" parent="1">
          <mxGeometry x="440" y="290" width="110" height="40" as="geometry" />
        </mxCell>
        <mxCell id="l7m09cQ_6OSYpOig4NT3-117" style="edgeStyle=none;rounded=0;orthogonalLoop=1;jettySize=auto;html=1;entryX=0.245;entryY=0.85;entryDx=0;entryDy=0;entryPerimeter=0;" edge="1" parent="1" source="l7m09cQ_6OSYpOig4NT3-7" target="l7m09cQ_6OSYpOig4NT3-116">
          <mxGeometry relative="1" as="geometry" />
        </mxCell>
        <mxCell id="l7m09cQ_6OSYpOig4NT3-118" value="discapacitados" style="ellipse;whiteSpace=wrap;html=1;" vertex="1" parent="1">
          <mxGeometry x="455" y="360" width="110" height="40" as="geometry" />
        </mxCell>
        <mxCell id="l7m09cQ_6OSYpOig4NT3-121" value="nombre" style="ellipse;whiteSpace=wrap;html=1;" vertex="1" parent="1">
          <mxGeometry x="85" y="770" width="55" height="40" as="geometry" />
        </mxCell>
        <mxCell id="l7m09cQ_6OSYpOig4NT3-122" value="id_paciente" style="ellipse;whiteSpace=wrap;html=1;" vertex="1" parent="1">
          <mxGeometry x="140" y="840" width="100" height="50" as="geometry" />
        </mxCell>
        <mxCell id="l7m09cQ_6OSYpOig4NT3-123" value="dimicilio" style="ellipse;whiteSpace=wrap;html=1;" vertex="1" parent="1">
          <mxGeometry x="490" y="790" width="100" height="60" as="geometry" />
        </mxCell>
        <mxCell id="l7m09cQ_6OSYpOig4NT3-124" value="telefono" style="ellipse;whiteSpace=wrap;html=1;" vertex="1" parent="1">
          <mxGeometry x="460" y="860" width="90" height="40" as="geometry" />
        </mxCell>
        <mxCell id="l7m09cQ_6OSYpOig4NT3-128" style="edgeStyle=none;rounded=0;orthogonalLoop=1;jettySize=auto;html=1;entryX=0.67;entryY=0.1;entryDx=0;entryDy=0;entryPerimeter=0;" edge="1" parent="1" source="l7m09cQ_6OSYpOig4NT3-5" target="l7m09cQ_6OSYpOig4NT3-122">
          <mxGeometry relative="1" as="geometry" />
        </mxCell>
        <mxCell id="l7m09cQ_6OSYpOig4NT3-129" value="id_medico" style="ellipse;whiteSpace=wrap;html=1;" vertex="1" parent="1">
          <mxGeometry x="10" y="1070" width="90" height="40" as="geometry" />
        </mxCell>
        <mxCell id="l7m09cQ_6OSYpOig4NT3-130" value="id_paciente" style="ellipse;whiteSpace=wrap;html=1;" vertex="1" parent="1">
          <mxGeometry x="135" y="1089" width="105" height="51" as="geometry" />
        </mxCell>
        <mxCell id="l7m09cQ_6OSYpOig4NT3-131" style="edgeStyle=none;rounded=0;orthogonalLoop=1;jettySize=auto;html=1;entryX=0.581;entryY=0.039;entryDx=0;entryDy=0;entryPerimeter=0;" edge="1" parent="1" source="l7m09cQ_6OSYpOig4NT3-8" target="l7m09cQ_6OSYpOig4NT3-130">
          <mxGeometry relative="1" as="geometry" />
        </mxCell>
        <mxCell id="l7m09cQ_6OSYpOig4NT3-132" style="edgeStyle=none;rounded=0;orthogonalLoop=1;jettySize=auto;html=1;entryX=0.744;entryY=0.1;entryDx=0;entryDy=0;entryPerimeter=0;" edge="1" parent="1" source="l7m09cQ_6OSYpOig4NT3-8" target="l7m09cQ_6OSYpOig4NT3-129">
          <mxGeometry relative="1" as="geometry" />
        </mxCell>
        <mxCell id="l7m09cQ_6OSYpOig4NT3-133" value="pacientes" style="ellipse;whiteSpace=wrap;html=1;rounded=0;" vertex="1" parent="1">
          <mxGeometry x="640" y="930" width="80" height="80" as="geometry" />
        </mxCell>
        <mxCell id="l7m09cQ_6OSYpOig4NT3-136" value="fecha y hora" style="ellipse;whiteSpace=wrap;html=1;rounded=0;" vertex="1" parent="1">
          <mxGeometry x="500" y="1080" width="80" height="50" as="geometry" />
        </mxCell>
      </root>
    </mxGraphModel>
  </diagram>
</mxfile>
